{
  "asset": {
    "version": "2.0",
    "generator": "3dpea GLTFExporter"
  },
  "scenes": [
    {
      "name": "AuxScene",
      "nodes": [
        7
      ]
    }
  ],
  "scene": 0,
  "nodes": [
    {
      "name": "9384K411_Drop-Over Interlocking Cable Ramp v1",
      "mesh": 0
    },
    {
      "name": "Component3",
      "children": [
        0
      ]
    },
    {
      "name": "9384K411_Drop-Over Interlocking Cable Ramp v1 (1)",
      "mesh": 1
    },
    {
      "name": "Transition 1",
      "children": [
        2
      ]
    },
    {
      "name": "9384K411_Drop-Over Interlocking Cable Ramp v1 (1) (1)",
      "mesh": 2
    },
    {
      "name": "Transition 2",
      "children": [
        4
      ]
    },
    {
      "name": "Floor cable cover v8",
      "children": [
        1,
        3,
        5
      ]
    },
    {
      "name": "Floor cable cover",
      "extras": {
        "nowCenter": true
      },
      "children": [
        6
      ]
    }
  ],
  "bufferViews": [
    {
      "buffer": 0,
      "byteOffset": 0,
      "byteLength": 14328,
      "target": 34962,
      "byteStride": 12
    },
    {
      "buffer": 0,
      "byteOffset": 14328,
      "byteLength": 14328,
      "target": 34962,
      "byteStride": 12
    },
    {
      "buffer": 0,
      "byteOffset": 28656,
      "byteLength": 7716,
      "target": 34963
    },
    {
      "buffer": 0,
      "byteOffset": 36372,
      "byteLength": 9624,
      "target": 34962,
      "byteStride": 12
    },
    {
      "buffer": 0,
      "byteOffset": 45996,
      "byteLength": 9624,
      "target": 34962,
      "byteStride": 12
    },
    {
      "buffer": 0,
      "byteOffset": 55620,
      "byteLength": 4752,
      "target": 34963
    },
    {
      "buffer": 0,
      "byteOffset": 60372,
      "byteLength": 9540,
      "target": 34962,
      "byteStride": 12
    },
    {
      "buffer": 0,
      "byteOffset": 69912,
      "byteLength": 9540,
      "target": 34962,
      "byteStride": 12
    },
    {
      "buffer": 0,
      "byteOffset": 79452,
      "byteLength": 4716,
      "target": 34963
    }
  ],
  "buffers": [
    {
      "byteLength": 84168,
      "uri": "data:application/octet-stream;base64,"
    }
  ],
  "accessors": [
    {
      "bufferView": 0,
      "componentType": 5126,
      "count": 1194,
      "max": [
        40.59244918823242,
        199,
        18.415000915527344
      ],
      "min": [
        -37.70256423950195,
        3.774758283725532e-13,
        1.2699999809265137
      ],
      "type": "VEC3"
    },
    {
      "bufferView": 1,
      "componentType": 5126,
      "count": 1194,
      "max": [
        1,
        1,
        1
      ],
      "min": [
        -1,
        -1,
        -1
      ],
      "type": "VEC3"
    },
    {
      "bufferView": 2,
      "componentType": 5123,
      "count": 3858,
      "max": [
        1193
      ],
      "min": [
        0
      ],
      "type": "SCALAR"
    },
    {
      "bufferView": 3,
      "componentType": 5126,
      "count": 802,
      "max": [
        40.59244918823242,
        19,
        18.415000915527344
      ],
      "min": [
        -37.70256423950195,
        -80.5,
        1.2699999809265137
      ],
      "type": "VEC3"
    },
    {
      "bufferView": 4,
      "componentType": 5126,
      "count": 802,
      "max": [
        1,
        1,
        1
      ],
      "min": [
        -1,
        -1,
        -1
      ],
      "type": "VEC3"
    },
    {
      "bufferView": 5,
      "componentType": 5123,
      "count": 2376,
      "max": [
        801
      ],
      "min": [
        0
      ],
      "type": "SCALAR"
    },
    {
      "bufferView": 6,
      "componentType": 5126,
      "count": 795,
      "max": [
        40.59244918823242,
        260.17999267578125,
        18.415000915527344
      ],
      "min": [
        -37.70256423950195,
        180,
        1.2699999809265137
      ],
      "type": "VEC3"
    },
    {
      "bufferView": 7,
      "componentType": 5126,
      "count": 795,
      "max": [
        1,
        1,
        1
      ],
      "min": [
        -1,
        -1,
        -1
      ],
      "type": "VEC3"
    },
    {
      "bufferView": 8,
      "componentType": 5123,
      "count": 2358,
      "max": [
        794
      ],
      "min": [
        0
      ],
      "type": "SCALAR"
    }
  ],
  "materials": [
    {
      "pbrMetallicRoughness": {
        "baseColorFactor": [
          0.3515325994898463,
          0.3515325994898463,
          0.3515325994898463,
          1
        ],
        "metallicFactor": 0,
        "roughnessFactor": 0.3
      },
      "doubleSided": true,
      "name": "Mat_1"
    },
    {
      "pbrMetallicRoughness": {
        "baseColorFactor": [
          0.35153260827064514,
          0.35153260827064514,
          0.35153260827064514,
          1
        ],
        "metallicFactor": 0,
        "roughnessFactor": 0.3
      },
      "doubleSided": true,
      "name": "Mat_2"
    },
    {
      "pbrMetallicRoughness": {
        "baseColorFactor": [
          0.35153260827064514,
          0.35153260827064514,
          0.35153260827064514,
          1
        ],
        "metallicFactor": 0,
        "roughnessFactor": 0.3
      },
      "doubleSided": true,
      "name": "Mat_3"
    }
  ],
  "meshes": [
    {
      "primitives": [
        {
          "mode": 4,
          "attributes": {
            "POSITION": 0,
            "NORMAL": 1
          },
          "indices": 2,
          "material": 0
        }
      ]
    },
    {
      "primitives": [
        {
          "mode": 4,
          "attributes": {
            "POSITION": 3,
            "NORMAL": 4
          },
          "indices": 5,
          "material": 1
        }
      ]
    },
    {
      "primitives": [
        {
          "mode": 4,
          "attributes": {
            "POSITION": 6,
            "NORMAL": 7
          },
          "indices": 8,
          "material": 2
        }
      ]
    }
  ]
}